[{"id":563245,"title":"Avconv warning while downloading YouTube video","body":"<p>I received this warning:</p>\n\n<pre><code>Your copy of avconv is outdated, \nupdate avconv to version 10-0 or newer if you encounter any errors.\n</code></pre>\n\n<p>while downloading a YouTube video with <code>youtube-dl -f 137+140</code>. I am using kubuntu 14.04. </p>\n\n<p>What should I do to get rid of this problem?</p>\n","related_questions":[{"id":702070,"title":"youtube-dl not working signature algorithm","body":"<p>I am getting this error when I am trying to download video from youtube via youtube-dl  \"WARNING: Warning: Falling back to static signature algorithm\nERROR: unable to download video data: HTTP Error 403: Forbidden\"</p>\n"},{"id":617498,"title":"avconv and codec parameter problems with Youtube-dl","body":"<p>I've been recently having some problems downloading youtube playlists. I'm quite ignorant with Linux and can't quite figure this out. \nI'll download a playlist and it will usually work for a couple videos and then i get this. </p>\n\n<pre><code>[download] Destination: Alan Watts How Do You Define Yourself-l7-9lo9JkwY.f141.m4a\n[download] 100% of 8.54MiB in 00:03\n[ffmpeg] Merging formats into \"Alan Watts How Do You Define Yourself-l7-9lo9JkwY.mkv\"\n\nWARNING: Your copy of avconv is outdated, update avconv to version 10-0 or newer if you encounter any errors.\n\nERROR: Could not write header for output file #0 (incorrect codec parameters ?): Operation not permitted\n</code></pre>\n"},{"id":487363,"title":"Cannot download youtube-dl","body":"<p>I was trying to download a video from YouTube using youtube-dl, but I got the sig error, so I tried to update youtube-dl to the latest version and it wasn't working. I'm sorry, I don't remember what the error was or what it said in the terminal when I tried to update. So I tried uninstalling and then reinstalling youtube-dl. The uninstalling part worked fine, it's the installing part that I need help with now.</p>\n\n<p>I tried typing <code>sudo apt-get install youtube-dl</code> and I get this: </p>\n\n<pre><code>Reading package lists... Done  \nBuilding dependency tree       \nReading state information... Done  \nyoutube-dl is already the newest version.  \n0 upgraded, 0 newly installed, 0 to remove and 3 not upgraded.  \n</code></pre>\n\n<p>So, I assumed that that meant that I had it installed, but when I tried to use it, nothing happens, or rather I just get this:  </p>\n\n<pre><code>root@chaaaaaaarlie3:~# youtube-dl https://www.youtube.com/watch?v=eISomx-VMow\nroot@chaaaaaaarlie3:~#\n</code></pre>\n\n<p>and the video obviously doesn't download.  </p>\n\n<p>I have been trying to fix this problem for a while now and I have no idea what to do. I also have almost no knowledge of how to use terminals/Ubuntu/computers/things of that sort, so if you could be very specific when helping me, I'd appreciate it. (Okay, I'm not COMPLETELY stupid, but I really don't know much. Let's just say that youtube-dl is the ONLY thing that I use the terminal for >.> )</p>\n\n<p>I'm not sure if this would be what's messing up my attempts to use youtube-dl, but I think I uninstalled youtube-dl and it's dependencies and I may have purged my local/config files for youtube-dl too. I can't really remember all that I did last night when I was trying to fix this...</p>\n"},{"id":580728,"title":"avconv creates zero byte file while trying to downsample mp4 video","body":"<p>I am having a time lapse video created using my phone that I am trying to downsample from 1080p to 640x480.</p>\n\n<p>According to <a href=\"http://askubuntu.com/a/162014/184942\">this answer</a>, I am using <code>avconv</code> command</p>\n\n<pre><code>avconv -i input.mp4 -s 640x480 output.mp4\n</code></pre>\n\n<p>but it creates a 0 byte file which obviously contains nothing.</p>\n\n<p>The output of the command is as follows</p>\n\n<pre><code>a@b:~$avconv  -i ./Videos/CivilStudy.mp4 -s 640x480 ./abc.mp4\navconv version     9.16-6:9.16-0ubuntu0.14.04.1, Copyright (c) 2000-2014 the Libav developers\n  built on Aug 10 2014 18:19:26 with gcc 4.8 (Ubuntu 4.8.2-19ubuntu1)\nInput #0, mov,mp4,m4a,3gp,3g2,mj2, from './Videos/CivilStudy.mp4':\n  Metadata:\n    major_brand     : isom\n    minor_version   : 512\n    compatible_brands: isomiso2mp41\n    creation_time   : 1970-01-01 00:00:00\n    encoder         : Lavf52.64.2\n  Duration: 00:00:43.58, start: 0.000000, bitrate: 10159 kb/s\n    Stream #0.0(und): Video: mpeg4 (Simple Profile), yuv420p, 1920x1080 [PAR 1:1 DAR 16:9], 10025 kb/s, 24 fps, 24 tbr, 24 tbn, 24 tbc\n    Metadata:\n      creation_time   : 1970-01-01 00:00:00\n    Stream #0.1(und): Audio: aac, 44100 Hz, mono, fltp, 129 kb/s\n    Metadata:\n      creation_time   : 1970-01-01 00:00:00\n[libx264 @ 0x843bde0] using SAR=4/3\n[libx264 @ 0x843bde0] using cpu capabilities: MMX2 SSE2Fast SSSE3 SSE4.1 Cache64\n[libx264 @ 0x843bde0] profile High, level 3.0\n[libx264 @ 0x843bde0] 264 - core 142 r2389 956c8d8 - H.264/MPEG-4 AVC codec -     Copyleft 2003-2014 - http://www.videolan.org/x264.html - options: cabac=1 ref=3 deblock=1:0:0 analyse=0x3:0x113 me=hex subme=7 psy=1 psy_rd=1.00:0.00 mixed_ref=1 me_range=16 chroma_me=1 trellis=1 8x8dct=1 cqm=0 deadzone=21,11 fast_pskip=1 chroma_qp_offset=-2 threads=3 lookahead_threads=1 sliced_threads=0 nr=0 decimate=1 interlaced=0 bluray_compat=0 constrained_intra=0 bframes=3 b_pyramid=2 b_adapt=1 b_bias=0 direct=1 weightb=1 open_gop=0 weightp=2 keyint=250 keyint_min=24 scenecut=40 intra_refresh=0 rc_lookahead=40 rc=crf mbtree=1 crf=23.0 qcomp=0.60 qpmin=0 qpmax=69 qpstep=4 ip_ratio=1.25 aq=1:1.00\nencoder 'aac' is experimental and might produce bad results.\nAdd '-strict experimental' if you want to use it\n</code></pre>\n\n<p>What do I do now?</p>\n"},{"id":583290,"title":"How to download youtube downloader in ubuntu?","body":"<p>I have given a command to download Youtube downloader as sudo apt-get install youtube-dl.\nWhat to do to save this???</p>\n"},{"id":473179,"title":"Webm videos converted with avconv not working properly","body":"<p>I'm converting mp4 videos to webm with the following command:</p>\n\n<pre><code>avconv -i INPUT.mp4 -c:v libvpx -qmin 10 -qmax 42 -maxrate 500k -bufsize 1000k -threads 2 -c:a libvorbis OUTPUT.webm\n</code></pre>\n\n<p>Am I doing something wrong?\nShould I use all of these parameters? I just want to make the videos compatible with all the browsers/devices. </p>\n\n<p>The videos are not working on Firefox on most devices and on Chrome in a specific Android device that I have.</p>\n\n<p>EDIT: When i play the embeded videos on firefox, on any android device, it goes straight to the end and doesn't play. It only plays if i click in the progress bar.\nIf i open the videos on firefox without embedding them in a html page, they seem to have a bigger width box outside then, while the video is inside it.</p>\n\n<p>I uploaded a video that i converted. Try it in firefox: <a href=\"https://mega.co.nz/#!cg9FVZJD!CpC6X3NXH8rAVdBiS9ZqqwyITdyPb_qkKAKsvQXRpzI\" rel=\"nofollow\">https://mega.co.nz/#!cg9FVZJD!CpC6X3NXH8rAVdBiS9ZqqwyITdyPb_qkKAKsvQXRpzI</a></p>\n\n<p>This is a comparison between the videos, after and before the conversion:\n![Image here]: <a href=\"http://i.imgur.com/V2FijCQ.jpg\" rel=\"nofollow\">http://i.imgur.com/V2FijCQ.jpg</a></p>\n"},{"id":345854,"title":"how to fix the error while downloading video","body":"<p>When I try to download a video, I get an error:</p>\n\n<p><code>youtube-dl http://youtu.be/My2FRPA3Gf8</code>:</p>\n\n<pre><code>[youtube] Setting language\n[youtube] My2FRPA3Gf8: Downloading video webpage\n[youtube] My2FRPA3Gf8: Downloading video info webpage\n[youtube] My2FRPA3Gf8: Extracting video information\n[youtube] My2FRPA3Gf8: Encrypted signatures detected.\n\nERROR: unable to download video\n</code></pre>\n"},{"id":432437,"title":"Can I Download A Video In MP3 Format Using youtube-dl?","body":"<p>I am using ubuntu 12.04 lts and i was wondering if there is a way in which we can download youtube to mp3 using youtube-dl?</p>\n"},{"id":247364,"title":"Record stream with avconv stops prematurley","body":"<p>I am trying to simply record a IP camera stream to my harddrive on Ubuntu Linaro. It works very well for 4 seconds then stops. There are no errors and playback is perfect. It seems like it is doing it intentionally. However I cannot for the life see where this file size  is set. It stops after approx 280k. If I lower the stream size it just records for longer but always stops when the file is roughly 280k. If I reduce the filesize with the -fs options and can force it smaller but any value over the 280k leaves the file at 280k. Here is my output :</p>\n\n<pre><code>avconv -y -i 'rtsp://192.168.0.100:554/axis-media/media.amp?videocodec=h264&amp;streamprofile=Quality' -benchmark -loglevel debug -c copy test.mpg\n</code></pre>\n\n<p>Produces :</p>\n\n<pre>\navconv version 0.8-4:0.8-1ubuntu1linaro1, Copyright (c) 2000-2011 the Libav developers\n  built on Jan 26 2012 15:06:17 with gcc 4.6.1\n  configuration: --extra-version='4:0.8-1ubuntu1linaro1' --arch=arm --prefix=/usr --libdir=/usr/lib/arm-linux-gnueabi --enable-vdpau --enable-bzlib --enable-libgsm --enable-libschroedinger --enable-libspeex --enable-libtheora --enable-libvorbis --enable-pthreads --enable-zlib --enable-libvpx --enable-runtime-cpudetect --enable-libfreetype --extra-cflags='-marm -fPIC -DPIC' --enable-vaapi --enable-gpl --enable-postproc --enable-swscale --enable-x11grab --enable-libdc1394 --shlibdir=/usr/lib/arm-linux-gnueabi/neon/vfp --extra-cflags='-mfpu=neon -fPIC -DPIC' --enable-shared --disable-static\n  libavutil    51. 21. 0 / 51. 21. 0\n  libavcodec   53. 34. 0 / 53. 34. 0\n  libavformat  53. 20. 0 / 53. 20. 0\n  libavdevice  53.  2. 0 / 53.  2. 0\n  libavfilter   2. 15. 0 /  2. 15. 0\n  libswscale    2.  1. 0 /  2.  1. 0\n  libpostproc  52.  0. 0 / 52.  0. 0\n[rtsp @ 0x26aa0] SDP:\nv=0\no=- 1343234035552520 1343234035552520 IN IP4 192.168.0.100\ns=Media Presentation\ne=NONE\nb=AS:50000\nt=0 0\na=control:rtsp://192.168.0.100:554/axis-media/media.amp?videocodec=h264&streamprofile=Quality\na=range:npt=0.000000-\nm=video 0 RTP/AVP 96\nc=IN IP4 0.0.0.0\nb=AS:50000\na=framerate:30.0\na=transform:1,0,0;0,1,0;0,0,1\na=control:rtsp://192.168.0.100:554/axis-media/media.amp/trackID=1?videocodec=h264&streamprofile=Quality\na=rtpmap:96 H264/90000\na=fmtp:96 packetization-mode=1; profile-level-id=420029; sprop-parameter-sets=Z0IAKeKQCgDLYC3AQEBpB4kRUA==,aM48gA==\n\n[rtsp @ 0x26aa0] video codec set to: h264\n[NULL @ 0x2a800] RTP Packetization Mode: 1\n[NULL @ 0x2a800] RTP Profile IDC: 42 Profile IOP: 0 Level: 29\n[NULL @ 0x2a800] Extradata set to 0x2ad80 (size: 29)!hello state=0\n[h264 @ 0x2a800] err{or,}_recognition separate: 1; 1\n[h264 @ 0x2a800] err{or,}_recognition combined: 1; 1\n[h264 @ 0x2a800] Unsupported bit depth: 0\n[rtsp @ 0x26aa0] All info found\n[rtsp @ 0x26aa0] Estimating duration from bitrate, this may be inaccurate\nInput #0, rtsp, from 'rtsp://192.168.0.100:554/axis-media/media.amp?videocodec=h264&streamprofile=Quality':\n  Metadata:\n    title           : Media Presentation\n  Duration: N/A, start: 0.039989, bitrate: N/A\n    Stream #0.0, 22, 1/90000: Video: h264 (Baseline), yuvj420p, 1280x800 [PAR 1:1 DAR 8:5], 1/180000, 90k tbr, 90k tbn, 180k tbc\n[mpeg @ 0x2fac0] VBV buffer size not set, muxing may fail\nOutput #0, mpeg, to 'test.mpg':\n  Metadata:\n    title           : Media Presentation\n    encoder         : Lavf53.20.0\n    Stream #0.0, 0, 1/90000: Video: [0][0][0][0] / 0x0000, yuvj420p, 1280x800 [PAR 1:1 DAR 8:5], 1/90000, q=2-31, 90k tbn, 90k tbc\nStream mapping:\n  Stream #0:0 -> #0:0 (copy)\nPress ctrl-c to stop encoding\nReceived BYE for stream 0 (1/1)=     208kB time=1.36 bitrate=1252.6kbits/s    \nframe=   49 fps= 49 q=-1.0 Lsize=     286kB time=1.88 bitrate=1245.9kbits/s    \nvideo:283kB audio:0kB global headers:0kB muxing overhead 0.902341%</pre>\n\n<p>Thank you in advance.</p>\n"},{"id":227497,"title":"Avconv ac3 to aac or mp3 is not synced with video","body":"<p>I'm trying to convert a MPEG2 file to H264/AAC. </p>\n\n<p>No problem about video, but when I convert <em>Audio: ac3, 48000 Hz, stereo, s16, 255 kb/s</em> to MP3 or AAC, with any bitrate, the sound is not synced with the video. The sound is in advanced to video when I play it.\nHow to fix it please ?</p>\n\n<p>More information : the source video is 1h30 long and 3,4 Gio.</p>\n"}]}]